<svg xmlns="http://www.w3.org/2000/svg" viewBox="0 0 1200 750" width="1200" height="750" font-family="DejaVu Sans, Liberation Sans, sans-serif">
<rect x="0" y="0" width="1200" height="750" rx="36" fill="#F7F9FC"/>
<text x="600.0" y="70" font-size="40" fill="#1565C0" text-anchor="middle" font-weight="bold" >Lire un schéma : simple allumage et mesures</text>
<text x="90" y="210" font-size="36" fill="#E53935" text-anchor="middle" font-weight="bold" >L</text>
<text x="90" y="560" font-size="36" fill="#1E88E5" text-anchor="middle" font-weight="bold" >N</text>
<line x1="130" y1="200" x2="420" y2="200" stroke="#E53935" stroke-width="5" stroke-linecap="round"/>
<circle cx="420" cy="200" r="6" fill="#37474F" stroke="#37474F" stroke-width="5"/>
<circle cx="500" cy="200" r="6" fill="#37474F" stroke="#37474F" stroke-width="5"/>
<line x1="420" y1="200" x2="492" y2="166" stroke="#37474F" stroke-width="5" stroke-linecap="round"/>
<line x1="500" y1="200" x2="760" y2="200" stroke="#E53935" stroke-width="5" stroke-linecap="round"/>
<line x1="760" y1="200" x2="760" y2="340" stroke="#37474F" stroke-width="5" stroke-linecap="round"/>
<circle cx="760" cy="375" r="32" fill="white" stroke="#37474F" stroke-width="5"/>
<line x1="737.376" y1="352.376" x2="782.624" y2="397.624" stroke="#37474F" stroke-width="5" stroke-linecap="round"/>
<line x1="737.376" y1="397.624" x2="782.624" y2="352.376" stroke="#37474F" stroke-width="5" stroke-linecap="round"/>
<line x1="760" y1="410" x2="760" y2="550" stroke="#37474F" stroke-width="5" stroke-linecap="round"/>
<line x1="760" y1="550" x2="130" y2="550" stroke="#1E88E5" stroke-width="5" stroke-linecap="round"/>
<text x="460" y="150" font-size="26" fill="#78909C" text-anchor="middle" font-weight="normal" >interrupteur</text>
<text x="710" y="385" font-size="26" fill="#78909C" text-anchor="end" font-weight="normal" >lampe</text>
<line x1="760" y1="340" x2="960" y2="340" stroke="#78909C" stroke-width="4" stroke-linecap="round" stroke-dasharray="10 8"/>
<line x1="760" y1="410" x2="960" y2="410" stroke="#78909C" stroke-width="4" stroke-linecap="round" stroke-dasharray="10 8"/>
<line x1="960" y1="340" x2="960" y2="410" stroke="#78909C" stroke-width="4" stroke-linecap="round" stroke-dasharray="10 8"/>
<circle cx="960" cy="375" r="34" fill="white" stroke="#37474F" stroke-width="5"/>
<text x="960" y="387" font-size="34" fill="#1F2933" text-anchor="middle" font-weight="bold" >V</text>
<text x="1010" y="385" font-size="24" fill="#78909C" text-anchor="start" font-weight="normal" >en parallèle</text>
<circle cx="300" cy="550" r="34" fill="white" stroke="#37474F" stroke-width="5"/>
<text x="300" y="562" font-size="34" fill="#1F2933" text-anchor="middle" font-weight="bold" >A</text>
<text x="300" y="620" font-size="24" fill="#78909C" text-anchor="middle" font-weight="normal" >en série</text>
<rect x="80" y="640" width="1040" height="84" rx="16" fill="white" stroke="#1565C0" stroke-width="4"/>
<text x="600.0" y="674" font-size="26" fill="#1F2933" text-anchor="middle" font-weight="bold" >L = phase  ·  N = neutre  ·  PE = terre</text>
<text x="600.0" y="710" font-size="24" fill="#78909C" text-anchor="middle" font-weight="normal" >Voltmètre en parallèle, ampèremètre en série</text>

</svg>